<?xml version="1.0" standalone="no"?>
<!DOCTYPE svg PUBLIC "-//W3C//DTD SVG 1.1//EN" "http://www.w3.org/Graphics/SVG/1.1/DTD/svg11.dtd" >
<svg xmlns="http://www.w3.org/2000/svg">
<metadata>Generated by IcoMoon</metadata>
<defs>
<font id="fontello" horiz-adv-x="1024">
<font-face units-per-em="1024" ascent="870.4" descent="-153.6" />
<missing-glyph horiz-adv-x="1024" />
<glyph unicode="&#x20;" horiz-adv-x="0" d="" />
<glyph unicode="&#xe800;" glyph-name="fb" d="M512 864c-281.6 0-512-230.4-512-512s230.4-512 512-512c281.6 0 512 230.4 512 512s-230.4 512-512 512zM645.12 352h-81.92v-307.2h-117.76v307.2h-76.8v107.52h76.8v61.44c0 87.040 25.6 138.24 122.88 138.24h87.040v-107.52h-51.2c-40.96 0-40.96-15.36-40.96-40.96v-51.2h97.28l-15.36-107.52z" />
<glyph unicode="&#xe801;" glyph-name="location" d="M512 567.040c-71.68 0-128-56.32-128-128s56.32-128 128-128 128 56.32 128 128-56.32 128-128 128zM512 864c-281.6 0-512-230.4-512-512s230.4-512 512-512 512 230.4 512 512-230.4 512-512 512zM706.56 413.44c-15.36-158.72-179.2-337.92-179.2-337.92-5.12-5.12-5.12-5.12-10.24-5.12v0h-10.24c-5.12 0-5.12 5.12-10.24 5.12 0 0-163.84 184.32-184.32 337.92 0 10.24 0 15.36 0 25.6 0 112.64 87.040 199.68 194.56 199.68s194.56-92.16 194.56-199.68c5.12-10.24 5.12-15.36 5.12-25.6z" />
<glyph unicode="&#xe802;" glyph-name="mail" d="M512-160c-46.080 0-92.16 5.12-138.24 20.48-46.080 10.24-87.040 30.72-122.88 51.2s-71.68 51.2-102.4 81.92c-30.72 30.72-56.32 66.56-81.92 102.4-20.48 35.84-40.96 76.8-51.2 122.88-10.24 40.96-15.36 87.040-15.36 133.12s5.12 92.16 20.48 138.24c10.24 46.080 30.72 87.040 51.2 122.88s51.2 71.68 81.92 102.4c30.72 30.72 66.56 56.32 102.4 81.92 35.84 20.48 76.8 40.96 122.88 51.2 40.96 10.24 87.040 15.36 133.12 15.36 71.68 0 138.24-15.36 199.68-40.96s117.76-61.44 163.84-107.52c46.080-46.080 81.92-102.4 107.52-163.84s40.96-128 40.96-199.68c0-46.080-5.12-92.16-20.48-138.24-10.24-46.080-30.72-81.92-51.2-122.88-20.48-35.84-51.2-71.68-81.92-102.4s-66.56-56.32-102.4-81.92c-35.84-20.48-76.8-40.96-122.88-51.2-40.96-10.24-87.040-15.36-133.12-15.36zM757.76 561.92h-486.4c-5.12 0-10.24 0-10.24-5.12-5.12 0-5.12-5.12-5.12-10.24v-56.32c0-5.12 0-5.12 5.12-5.12l256-143.36c0 0 0 0 5.12 0l245.76 143.36c0 0 0 0 5.12 0 0 0 0 0 5.12 0s5.12 0 5.12 5.12v51.2c0 5.12 0 10.24-5.12 10.24-10.24 10.24-15.36 10.24-20.48 10.24zM409.6 346.88c0 0 0 0 0 0 0 5.12 0 5.12 0 5.12l-148.48 81.92c0 0-5.12 0-5.12 0s0 0 0-5.12v-220.16c0 0 0-5.12 5.12-5.12v0c0 0 0 0 0 0l148.48 143.36zM588.8 326.4c0 0 0 0-5.12 0l-56.32-30.72c-5.12-5.12-15.36-5.12-20.48 0l-51.2 25.6c0 0-5.12 0-5.12 0l-189.44-174.080c0 0 0 0 0-5.12 0 0 0 0 0-5.12 5.12 0 5.12 0 10.24 0h481.28c0 0 5.12 0 5.12 0 0 5.12 0 5.12 0 5.12l-168.96 184.32zM773.12 439.040v0l-143.36-81.92c0 0 0 0 0-5.12 0 0 0 0 0-5.12l138.24-148.48c0 0 0 0 5.12 0v0c0 0 5.12 5.12 5.12 5.12l-5.12 235.52c5.12-5.12 0 0 0 0z" />
<glyph unicode="&#xe803;" glyph-name="phone" d="M512 864c-281.6 0-512-230.4-512-512s230.4-512 512-512 512 230.4 512 512c0 281.6-230.4 512-512 512zM783.36 116.48l-40.96-40.96c-5.12-5.12-30.72-10.24-30.72-10.24-128 0-256 51.2-348.16 143.36s-143.36 215.040-143.36 348.16c0 0 5.12 20.48 10.24 25.6l40.96 40.96c15.36 15.36 46.080 20.48 66.56 15.36l10.24-5.12c20.48-5.12 40.96-30.72 46.080-51.2l20.48-76.8c5.12-20.48 0-51.2-15.36-66.56l-25.6-20.48c25.6-97.28 102.4-179.2 204.8-204.8l25.6 25.6c15.36 15.36 46.080 20.48 66.56 15.36l76.8-20.48c20.48-5.12 40.96-25.6 51.2-46.080l5.12-10.24c0-15.36-5.12-46.080-20.48-61.44z" />
<glyph unicode="&#xe804;" glyph-name="direction" d="M512 864c-281.6 0-512-230.4-512-512s230.4-512 512-512c281.6 0 512 230.4 512 512s-230.4 512-512 512zM604.16 167.68l-66.56 66.56 107.52 107.52-240.64 5.12v-199.68h-97.28v291.84l332.8-5.12-107.52 107.52 71.68 66.56 215.040-220.16-215.040-220.16z" />
<glyph unicode="&#xe805;" glyph-name="caret-down" horiz-adv-x="1707" d="M852.992-160l-852.992 1024h1707.008l-854.016-1024z" />
<glyph unicode="&#xe806;" glyph-name="close-icon" d="M955.392 611.072c-47.104 75.776-108.544 143.36-184.32 184.32-74.752 48.128-163.84 68.608-259.072 68.608s-177.152-20.48-259.072-68.608c-75.776-47.104-137.216-108.544-184.32-184.32-48.128-81.92-68.608-163.84-68.608-259.072s20.48-177.152 68.608-259.072c47.104-75.776 108.544-143.36 184.32-184.32 74.752-48.128 163.84-68.608 259.072-68.608s177.152 20.48 259.072 68.608c75.776 47.104 143.36 108.544 184.32 184.32 48.128 74.752 68.608 163.84 68.608 259.072s-20.48 177.152-68.608 259.072zM750.592 229.12c7.168-7.168 14.336-20.48 14.336-27.648 0-13.312-7.168-20.48-14.336-26.624l-54.272-61.44c-7.168-7.168-20.48-14.336-27.648-14.336-13.312 0-20.48 7.168-26.624 14.336l-130.048 115.712-122.88-115.712c-7.168-7.168-20.48-14.336-27.648-14.336-13.312 0-20.48 7.168-26.624 14.336l-61.44 54.272c-14.336 13.312-14.336 20.48-14.336 33.792 0 14.336 7.168 20.48 14.336 27.648l122.88 122.88-122.88 122.88c-14.336 7.168-14.336 13.312-14.336 27.648 0 13.312 0 20.48 14.336 33.792l54.272 54.272c13.312 14.336 20.48 14.336 33.792 14.336 14.336 0 20.48-7.168 27.648-14.336l122.88-122.88 122.88 122.88c7.168 7.168 20.48 14.336 27.648 14.336 13.312 0 20.48-7.168 26.624-14.336l61.44-54.272c7.168-7.168 14.336-20.48 14.336-27.648 0-13.312-7.168-20.48-14.336-26.624l-115.712-130.048 115.712-122.88z" />
<glyph unicode="&#xe807;" glyph-name="direction-1" d="M512 864c-281.6 0-512-230.4-512-512s230.4-512 512-512c281.6 0 512 230.4 512 512s-230.4 512-512 512zM604.16 167.68l-66.56 66.56 107.52 107.52-240.64 5.12v-199.68h-97.28v291.84l332.8-5.12-107.52 107.52 71.68 66.56 215.040-220.16-215.040-220.16z" />
<glyph unicode="&#xe808;" glyph-name="fb-1" d="M512 864c-281.6 0-512-230.4-512-512s230.4-512 512-512c281.6 0 512 230.4 512 512s-230.4 512-512 512zM645.12 352h-81.92v-307.2h-117.76v307.2h-76.8v107.52h76.8v61.44c0 87.040 25.6 138.24 122.88 138.24h87.040v-107.52h-51.2c-40.96 0-40.96-15.36-40.96-40.96v-51.2h97.28l-15.36-107.52z" />
<glyph unicode="&#xe809;" glyph-name="female" horiz-adv-x="683" d="M396.288 180.992v-102.4h95.232c33.792 0 54.272-26.624 54.272-54.272 0-33.792-26.624-54.272-54.272-54.272h-95.232v-61.44c0-34.816-27.648-55.296-55.296-55.296s-54.272 27.648-54.272 55.296v61.44h-95.232c-34.816 0-55.296 26.624-55.296 54.272 0 33.792 27.648 54.272 55.296 54.272h88.064v102.4c-156.672 27.648-279.552 171.008-279.552 342.016 0 190.464 150.528 340.992 340.992 340.992s342.016-156.672 342.016-340.992c0-178.176-122.88-321.536-286.72-342.016zM340.992 748.288c-122.88 0-225.28-102.4-225.28-225.28s102.4-232.448 225.28-232.448c122.88 0 225.28 102.4 225.28 232.448 0 122.88-102.4 225.28-225.28 225.28z" />
<glyph unicode="&#xe80a;" glyph-name="filter" d="M1024 838.4c-12.288 13.312-25.6 25.6-51.2 25.6h-921.6c-25.6 0-37.888-12.288-51.2-25.6 0-25.6 0-37.888 13.312-51.2l358.4-358.4v-358.4c0-12.288 0-25.6 12.288-37.888l192.512-192.512c0 12.288 12.288 0 25.6 0 0 0 12.288 0 12.288 0 25.6 12.288 38.912 25.6 38.912 51.2v537.6l358.4 358.4c12.288 13.312 12.288 25.6 12.288 51.2v0zM1024 838.4" />
<glyph unicode="&#xe80b;" glyph-name="link-arrow" horiz-adv-x="853" d="M852.992 352l-852.992-512c0 0 161.792 230.4 161.792 512s-161.792 512-161.792 512l852.992-512z" />
<glyph unicode="&#xe80c;" glyph-name="location-1" d="M512 567.040c-71.68 0-128-56.32-128-128s56.32-128 128-128 128 56.32 128 128-56.32 128-128 128zM512 864c-281.6 0-512-230.4-512-512s230.4-512 512-512 512 230.4 512 512-230.4 512-512 512zM706.56 413.44c-15.36-158.72-179.2-337.92-179.2-337.92-5.12-5.12-5.12-5.12-10.24-5.12v0h-10.24c-5.12 0-5.12 5.12-10.24 5.12 0 0-163.84 184.32-184.32 337.92 0 10.24 0 15.36 0 25.6 0 112.64 87.040 199.68 194.56 199.68s194.56-92.16 194.56-199.68c5.12-10.24 5.12-15.36 5.12-25.6z" />
<glyph unicode="&#xe80d;" glyph-name="mail-1" d="M512-160c-46.080 0-92.16 5.12-138.24 20.48-46.080 10.24-87.040 30.72-122.88 51.2s-71.68 51.2-102.4 81.92c-30.72 30.72-56.32 66.56-81.92 102.4-20.48 35.84-40.96 76.8-51.2 122.88-10.24 40.96-15.36 87.040-15.36 133.12s5.12 92.16 20.48 138.24c10.24 46.080 30.72 87.040 51.2 122.88s51.2 71.68 81.92 102.4c30.72 30.72 66.56 56.32 102.4 81.92 35.84 20.48 76.8 40.96 122.88 51.2 40.96 10.24 87.040 15.36 133.12 15.36 71.68 0 138.24-15.36 199.68-40.96s117.76-61.44 163.84-107.52c46.080-46.080 81.92-102.4 107.52-163.84s40.96-128 40.96-199.68c0-46.080-5.12-92.16-20.48-138.24-10.24-46.080-30.72-81.92-51.2-122.88-20.48-35.84-51.2-71.68-81.92-102.4s-66.56-56.32-102.4-81.92c-35.84-20.48-76.8-40.96-122.88-51.2-40.96-10.24-87.040-15.36-133.12-15.36zM757.76 561.92h-486.4c-5.12 0-10.24 0-10.24-5.12-5.12 0-5.12-5.12-5.12-10.24v-56.32c0-5.12 0-5.12 5.12-5.12l256-143.36c0 0 0 0 5.12 0l245.76 143.36c0 0 0 0 5.12 0 0 0 0 0 5.12 0s5.12 0 5.12 5.12v51.2c0 5.12 0 10.24-5.12 10.24-10.24 10.24-15.36 10.24-20.48 10.24zM409.6 346.88c0 0 0 0 0 0 0 5.12 0 5.12 0 5.12l-148.48 81.92c0 0-5.12 0-5.12 0s0 0 0-5.12v-220.16c0 0 0-5.12 5.12-5.12v0c0 0 0 0 0 0l148.48 143.36zM588.8 326.4c0 0 0 0-5.12 0l-56.32-30.72c-5.12-5.12-15.36-5.12-20.48 0l-51.2 25.6c0 0-5.12 0-5.12 0l-189.44-174.080c0 0 0 0 0-5.12 0 0 0 0 0-5.12 5.12 0 5.12 0 10.24 0h481.28c0 0 5.12 0 5.12 0 0 5.12 0 5.12 0 5.12l-168.96 184.32zM773.12 439.040v0l-143.36-81.92c0 0 0 0 0-5.12 0 0 0 0 0-5.12l138.24-148.48c0 0 0 0 5.12 0v0c0 0 5.12 5.12 5.12 5.12l-5.12 235.52c5.12-5.12 0 0 0 0z" />
<glyph unicode="&#xe80e;" glyph-name="male" d="M953.344 462.592c-39.936 0-70.656 31.744-70.656 70.656v94.208l-125.952-125.952c109.568-164.864 94.208-393.216-48.128-535.552-78.848-78.848-181.248-125.952-290.816-125.952s-212.992 47.104-291.84 125.952c-165.888 165.888-165.888 433.152 0 590.848 78.848 78.848 181.248 125.952 291.84 125.952 86.016 0 173.056-31.744 243.712-78.848l118.784 118.784h-78.848c-39.936 0-71.68 23.552-71.68 62.464 0 39.936 31.744 70.656 71.68 70.656l243.712 8.192c23.552 0 47.104 0 63.488-15.36 0 0 0 0 0 0 7.168-16.384 15.36-39.936 15.36-55.296v-260.096c0-38.912-31.744-70.656-70.656-70.656zM614.4 454.4c-55.296 55.296-117.76 78.848-196.608 78.848-70.656 0-142.336-31.744-197.632-78.848-109.568-110.592-109.568-283.648 0-394.24 102.4-102.4 283.648-102.4 394.24 0 102.4 110.592 102.4 291.84 0 394.24z" />
<glyph unicode="&#xe80f;" glyph-name="phone-1" d="M512 864c-281.6 0-512-230.4-512-512s230.4-512 512-512 512 230.4 512 512c0 281.6-230.4 512-512 512zM783.36 116.48l-40.96-40.96c-5.12-5.12-30.72-10.24-30.72-10.24-128 0-256 51.2-348.16 143.36s-143.36 215.040-143.36 348.16c0 0 5.12 20.48 10.24 25.6l40.96 40.96c15.36 15.36 46.080 20.48 66.56 15.36l10.24-5.12c20.48-5.12 40.96-30.72 46.080-51.2l20.48-76.8c5.12-20.48 0-51.2-15.36-66.56l-25.6-20.48c25.6-97.28 102.4-179.2 204.8-204.8l25.6 25.6c15.36 15.36 46.080 20.48 66.56 15.36l76.8-20.48c20.48-5.12 40.96-25.6 51.2-46.080l5.12-10.24c0-15.36-5.12-46.080-20.48-61.44z" />
<glyph unicode="&#xe810;" glyph-name="previous-news" horiz-adv-x="1093" d="M573.44 597.76h-81.92v-273.408l259.072-149.504 40.96 67.584-218.112 122.88v232.448M573.44 864c-191.488 0-361.472-102.4-450.56-259.072l-122.88 122.88v-348.16h355.328l-150.528 149.504c68.608 137.216 204.8 225.28 368.64 225.28 225.28 0 409.6-184.32 409.6-402.432s-184.32-402.432-409.6-402.432c-177.152 0-327.68 115.712-389.12 266.24h-115.712c61.44-211.968 266.24-375.808 504.832-375.808 286.72 0 519.168 232.448 519.168 512s-232.448 512-519.168 512" />
<glyph unicode="&#xe811;" glyph-name="arrow-left" horiz-adv-x="2304" d="M448.512 249.6h1855.488v218.112h-1855.488l268.288 242.688-165.888 153.6-550.912-512 550.912-512 165.888 153.6-268.288 256z" />
<glyph unicode="&#xe812;" glyph-name="arrow-right" horiz-adv-x="2304" d="M1856.512 467.712h-1856.512v-218.112h1856.512l-269.312-242.688 166.912-166.912 549.888 512-549.888 512-166.912-153.6 269.312-242.688z" />
<glyph unicode="&#xe813;" glyph-name="back-to-top" horiz-adv-x="1707" d="M0 36.608l196.608-196.608 656.384 640 657.408-640 196.608 196.608-854.016 827.392-852.992-827.392z" />
<glyph unicode="&#xe814;" glyph-name="male-round" d="M463.872 444.16c-35.84 0-71.68-16.384-99.328-39.936-56.32-56.32-56.32-144.384 0-199.68 51.2-52.224 143.36-52.224 199.68 0 52.224 55.296 52.224 147.456 0 199.68-28.672 27.648-60.416 39.936-100.352 39.936zM512 864c-283.648 0-512-228.352-512-512s228.352-512 512-512c283.648 0 512 228.352 512 512s-228.352 512-512 512zM772.096 444.16c0-20.48-16.384-35.84-35.84-35.84s-35.84 15.36-35.84 35.84v48.128l-64.512-64.512c56.32-83.968 48.128-199.68-23.552-271.36-39.936-39.936-92.16-64.512-148.48-64.512s-107.52 24.576-147.456 64.512c-83.968 83.968-83.968 219.136 0 300.032 39.936 39.936 91.136 63.488 147.456 63.488 44.032 0 88.064-16.384 123.904-39.936l60.416 60.416h-39.936c-20.48 0-35.84 11.264-35.84 31.744s15.36 35.84 35.84 35.84l123.904 4.096c12.288 0 23.552 0 31.744-8.192 4.096-8.192 8.192-19.456 8.192-27.648v-132.096z" />
<glyph unicode="&#xe815;" glyph-name="female-round" d="M512 864c-283.648 0-512-228.352-512-512s228.352-512 512-512c283.648 0 512 228.352 512 512s-228.352 512-512 512zM543.744 247.552v-59.392h56.32c20.48 0 31.744-16.384 31.744-31.744 0-20.48-15.36-32.768-31.744-32.768h-56.32v-35.84c0-19.456-15.36-31.744-31.744-31.744s-31.744 16.384-31.744 31.744v35.84h-56.32c-19.456 0-31.744 16.384-31.744 32.768 0 19.456 15.36 31.744 31.744 31.744h52.224v59.392c-92.16 16.384-163.84 100.352-163.84 200.704 0 111.616 88.064 199.68 199.68 199.68s199.68-92.16 199.68-199.68c0-104.448-71.68-188.416-167.936-200.704zM512 580.352c-71.68 0-132.096-60.416-132.096-132.096s60.416-136.192 132.096-136.192 132.096 60.416 132.096 136.192c0 71.68-60.416 132.096-132.096 132.096z" />
<glyph unicode="&#xe900;" glyph-name="newsletter" horiz-adv-x="2133" d="M2133.333 787.2l-170.667-878.933c-8.533-42.667-42.667-76.8-85.333-76.8h-1194.667c-34.133 0-59.733 34.133-51.2 76.8l170.667 878.933c8.533 42.667 42.667 76.8 85.333 76.8h1194.667c34.133 0 59.733-34.133 51.2-76.8zM1988.267 676.267c-8.533 25.6-25.6 42.667-51.2 42.667-8.533 0-25.6 0-34.133-8.533l-494.933-256-392.533 256c-8.533 8.533-17.067 8.533-34.133 8.533-25.6 0-51.2-17.067-68.267-42.667-25.6-34.133-25.6-85.333 8.533-102.4l426.667-273.067c17.067-8.533 42.667-8.533 68.267 0l529.067 273.067c25.6 17.067 51.2 59.733 42.667 102.4zM699.733 676.267h-512c-25.6 0-51.2 17.067-51.2 51.2s25.6 51.2 51.2 51.2h512c25.6 0 51.2-25.6 51.2-51.2s-25.6-51.2-51.2-51.2zM273.067 488.533c0 25.6 25.6 51.2 51.2 51.2h307.2c25.6 0 51.2-25.6 51.2-51.2s-25.6-51.2-51.2-51.2h-307.2c-25.6 0-51.2 25.6-51.2 51.2zM614.4 249.6c0-25.6-25.6-51.2-51.2-51.2h-512c-25.6 0-51.2 17.067-51.2 51.2 0 25.6 25.6 51.2 51.2 51.2h512c25.6 0 51.2-25.6 51.2-51.2zM332.8 61.867h162.133c25.6 0 51.2-25.6 51.2-51.2s-25.6-51.2-51.2-51.2h-162.133c-25.6 0-51.2 25.6-51.2 51.2 0 34.133 25.6 51.2 51.2 51.2z" />
</font>
</defs>
</svg>
